<svg width="53" height="116" viewBox="0 0 53 116" fill="none" xmlns="http://www.w3.org/2000/svg">
<path d="M14.5374 2C14.6277 7.43138 15.7517 12.7703 16.3155 18.1687C17.3871 28.4306 17.6658 38.7454 17.9618 49.0543C18.5237 68.6207 16.7151 88.0529 16.9081 107.592C16.9113 107.912 17.1175 114.235 17.9618 113.993C18.3548 113.881 14.1717 105.271 13.9447 104.754C9.31728 94.2147 3.84681 83.3128 2.22264 71.7565C1.80233 68.766 1.9648 69.3962 2.81533 71.7565C4.8057 77.2801 6.63987 82.8751 8.01782 88.5852C9.534 94.8682 10.7594 101.133 13.2203 107.13C13.8847 108.749 15.4424 114.215 18.0935 113.993C20.9356 113.756 24.4414 102.842 25.3375 100.794C29.4086 91.4904 33.9798 82.4559 38.8376 73.5384C42.0889 67.5701 45.3784 61.369 49.3743 55.8518C51.0825 53.4932 51.2995 54.5107 50.6914 56.6437" stroke="#2B3145" stroke-width="4" stroke-linecap="round" stroke-linejoin="round"/>
</svg>
